<?xml version="1.0" encoding="UTF-8"?>
<svg version="1.1" xmlns="http://www.w3.org/2000/svg" width="155" height="32" >
<path fill="#d1af78" d="M4.271,5.802c2.659,4.152,5.466,9.688,4.14,14.7c-0.33,1.245,1.342,0.704,1.25,0.059 c-0.079-0.55,0.096-1.215,0.192-1.753c0.42-2.355,1.532-4.556,2.716-6.606c1.126-1.949,3.951-5.946,6.761-4.99 c0.642,0.219,2.268-0.717,1.172-1.09c-2.34-0.797-4.967,0.747-6.673,2.177c-2.351,1.969-3.842,4.958-5,7.73 c-0.412,0.985-1.915,4.518-0.928,5.598c2.229,2.438,2.833-4.685,2.775-5.33c-0.354-3.938-2.507-7.974-4.615-11.266 C5.695,4.458,3.821,5.099,4.271,5.802L4.271,5.802 M15.205,16.803c-0.731,2.042-0.694,5.036,2.315,4.289c2.524-0.626,4.46-2.038,6.448-3.677 c0.944-0.505,0.917-0.728-0.083-0.669c-0.267,0.705-0.577,1.391-0.93,2.058c-0.513,1.068-1.366,2.434-1.095,3.683 c0.034,0.089,0.097,0.149,0.189,0.179c3.901,1.081,3.944-5.411,5.894-6.702c-0.517,0.008-1.034,0.015-1.551,0.023 c1.382,2.27-0.049,5.105,3.753,4.861c0.655-0.042,1.523-0.297,1.993-0.754c0.919-0.894,4.667-7.304,5.527-4.826 c0.623-0.207,1.245-0.415,1.867-0.622c-3.453-4.355-8.319,1.969-7.319,5.948c1.039,4.133,12.244-3.045,13.594-4.091 c1.407-1.09,0.757-3.218-1.122-2.973c-2.62,0.342-4.089,2.728-3.982,5.312c0.104,2.503,2.98,2.904,4.859,2.584 c4.192-0.714,7.034-5.094,8.996-8.395c-0.618,0.049-1.235,0.097-1.854,0.146c-0.842,2.242-3.66,7.194-2.872,9.546 c0.049,0.147,0.225,0.21,0.363,0.225c2.061,0.218,2.945-2.363,3.737-3.792c0.495-0.895,1.003-1.764,1.571-2.613 c-0.252,0.376-0.492-0.396-0.382,0.93c0.083,0.996,0.024,2.062,0.512,2.964c2.276,4.214,13.2-13.319,14.119-15.408 c0.239-0.544-1.609-0.295-1.854,0.146c-2.405,4.353-4.793,8.834-6.431,13.539c-1.923,5.521,2.723,3.186,5.211,0.944 c0.807-0.727-1.112-0.608-1.527-0.234c-1.35,1.216-2.725,2.892-2.086,0.106c0.458-1.996,1.404-3.92,2.248-5.773 c1.332-2.922,2.814-5.789,4.368-8.6c-0.618,0.049-1.235,0.097-1.854,0.146c-1.47,3.342-3.337,6.3-5.614,9.141 c-0.932,1.162-4.641,7.274-5.058,3.95c-0.172-1.37,0.156-3.929-2.018-3.055c-1.162,0.467-1.772,1.737-2.378,2.742 c-0.705,1.17-1.315,2.391-2.039,3.551c-0.656,1.052,0.925,0.539,1.146-0.479c0.609-2.809,1.75-5.563,2.759-8.249 c0.227-0.603-1.617-0.251-1.854,0.146c-1.3,2.187-7.641,11.34-10.015,5.837c-0.951-2.204,0.584-1.787,1.52-2.619 c-0.744,0.662-1.653,1.155-2.5,1.667c-1.448,0.876-7.07,4.385-7.762,1.633c-0.494-1.963,1.697-6.74,3.713-4.198 c0.316,0.399,2.063-0.058,1.867-0.621c-0.589-1.694-2.119-2.376-3.763-1.383c-1.506,0.91-2.915,2.137-3.638,3.8 c-0.617,1.422-3.051,2.93-3.462,0.688c-0.142-0.769,0.005-1.701-0.412-2.387c-0.278-0.457-1.196-0.212-1.552,0.023 c-1.191,0.788-1.536,2.49-2.082,3.728c-2.17,4.923,0.986-2.024,1.192-3.159c0.029-0.161-0.05-0.232-0.185-0.301 c-0.66-0.336-1.503,0.018-2.046,0.439c-2.167,1.686-8.404,5.583-6.523,0.33C17.332,15.962,15.417,16.21,15.205,16.803 L15.205,16.803 M62.762,12.768c1.083,0.958,2.167,1.917,3.25,2.875c0.44,0.39,2.215-0.342,1.809-0.702 c-1.083-0.958-2.167-1.917-3.25-2.875C64.13,11.676,62.356,12.408,62.762,12.768L62.762,12.768 M19.257,12.658c-0.014-0.273,0.02-0.536,0.072-0.819c0.044-0.238,0.12-0.468,0.22-0.689 c0.136-0.302,0.436-0.349-0.029-0.254c0.35-0.071,0.983-0.205,1.109-0.615c0.121-0.395-0.616-0.382-0.815-0.342 c-1.048,0.214-1.913,0.701-2.292,1.741c-0.17,0.464-0.22,1.004-0.195,1.496C17.353,13.712,19.292,13.338,19.257,12.658 L19.257,12.658 M76.503,16.905c0.14-0.28,0.304-0.542,0.474-0.804c0.303-0.308,0.276-0.365-0.076-0.17 c0.317,0.512,0.41,1.315,0.583,1.885c0.461,1.516,1.008,3.012,1.592,4.485c0.241,0.607,1.95,0.105,1.932-0.518 c-0.13-4.335,3.52-8.427,6.548-10.999c0.823-0.7-1.104-0.593-1.527-0.234c-3.29,2.795-7.092,7.079-6.952,11.751 c0.644-0.172,1.288-0.345,1.932-0.518c-0.496-1.251-0.944-2.521-1.371-3.797c-0.278-0.833-0.442-3.087-1.585-3.291 c-1.697-0.302-2.799,1.131-3.472,2.483C74.338,17.664,76.219,17.476,76.503,16.905L76.503,16.905 M88.107,14.284c0.871-0.364,1.766,4.925,1.844,5.642c0.644-0.172,1.288-0.345,1.932-0.518 c-0.271-1.674-1.145-4.025-3.281-3.453c-1.189,0.319-4.545,3.857-2.623,4.958c1.237,0.709,3.442,0.443,4.802,0.049 c3.225-0.936,5.677-4.643,7.579-7.101c-0.582-0.152-1.165-0.304-1.748-0.456c-1.081,2.913-2.309,5.911-2.884,8.973 c-0.171,0.912,0.573,1.717,1.513,1.167c1.508-0.883,2.352-3.308,3.107-4.743c0.542-1.031,1.077-2.074,1.761-3.02 c0.445-0.615-1.043-0.713-0.908-0.22c0.078,0.287,0.053,0.615,0.056,0.909c0.013,1.237-0.076,2.486,0.185,3.706 c0.834,3.909,5.295-0.659,6.294-1.815c0.812-0.938-1.021-1.349-1.635-0.64c-0.711,0.821-1.427,1.616-2.297,2.271 c-0.391,0.294-0.254,0.279-0.431-0.334c-0.301-1.039-0.154-2.241-0.152-3.309c0.004-1.393-0.656-3.001-2.266-1.729 c-0.957,0.756-1.554,2.208-2.115,3.243c-0.623,1.147-1.215,2.309-1.867,3.439c-1.439,2.496,0.791-1.085,0.689,1.182 c0.013-0.271,0.093-0.548,0.152-0.811c0.609-2.72,1.689-5.388,2.659-7.997c0.388-1.045-1.282-1.058-1.748-0.456 c-1.688,2.179-4.157,6.269-7.266,6.488c-0.644,0.045-2.101,0.392-1.799-0.642c0.794-2.729,2.051-0.62,2.291,0.857 c0.158,0.974,2.037,0.448,1.932-0.518c-0.238-2.185-1.054-7.864-4.656-6.358C86.009,13.558,87.082,14.712,88.107,14.284 L88.107,14.284 M125.132,7.658c-1.045-1.812-3.33-1.788-5-0.884c-3.657,1.979-6.161,6.959-5.826,11.065 c0.194,2.372,3.05,4.731,5.458,4.14c2.939-0.722,3.088-5.65,3.729-7.984c0.133-0.483-1.62,0.021-1.825,0.249 c-0.135,0.149-0.818,0.957-0.957,0.928c-0.448-0.095-2.124,0.628-1.59,0.741c1.647,0.348,3.224-0.636,4.293-1.822 c-0.608,0.083-1.217,0.166-1.825,0.249c-0.596,2.168-0.997,4.474-1.866,6.556c-0.353,0.846-0.619,0.265,0.299,0.395 c-0.389-0.055-0.781-0.299-1.123-0.477c-1.104-0.573-1.914-1.27-2.412-2.431c-1.051-2.456,0.328-5.584,1.516-7.724 c0.886-1.598,3.601-5.251,5.198-2.483C123.473,8.648,125.284,7.92,125.132,7.658L125.132,7.658 M119.141,21.391c-1.119,1.924-2.508,4.428-4.451,5.605c-0.266,0.161-0.58,0.564-0.166,0.767 c0.415,0.203,0.997,0.048,1.369-0.177c2.212-1.339,3.777-3.957,5.049-6.145C121.408,20.642,119.463,20.836,119.141,21.391 L119.141,21.391 M130.069,14.309c-3.107-2.709-8.293,4.344-4.917,6.406c1.558,0.951,3.814-0.193,4.94-1.326 C131.636,17.835,132.088,15.667,130.069,14.309c-0.517-0.347-2.232,0.427-1.805,0.715c1.047,0.704,1.518,1.63,1.112,2.864 c-0.247,0.753-1.385,2.38-2.326,2.133c-1.383-0.364-0.953-2.401-0.609-3.314c0.224-0.597,1.001-2.399,1.823-1.683 C128.724,15.425,130.505,14.689,130.069,14.309 M139.8,12.613c-2.701-2.72-7.031,0.546-7.437,3.741c-0.602,4.727,4.226,4.352,6.488,1.604 c-0.578-0.136-1.157-0.271-1.735-0.408c-0.588,1.472-1.248,2.914-1.938,4.34c-0.648,1.34-1.369,2.647-2.183,3.895 c-0.58,0.889-2.924,3.034-1.749,0.387c1.479-3.332,6.007-4.955,8.86-6.955c2.846-1.994,5.629-4.583,7.429-7.578 c0.581-0.966,3.516-7.203-0.384-4.762c-4.098,2.566-5.349,10.238-5.466,14.483c-0.024,0.91,1.401,0.737,1.79,0.221 c0.668-0.886,1.36-1.753,2.067-2.608c0.531-0.643,1.083-1.281,1.701-1.842c-0.916-0.561-1.334-0.262-1.255,0.896 c-0.166,0.563-0.262,1.124-0.351,1.702c-0.672,4.375,4.127,1.224,5.419,0.009c0.953-0.895-0.567-1.573-1.285-0.898 c-4.113,3.863-0.726-0.92-1.564-2.718c-0.124-0.265-0.331-0.426-0.634-0.452c-2.337-0.198-4.533,3.752-5.72,5.327 c0.597,0.074,1.193,0.147,1.79,0.221c0.103-3.746,0.963-7.247,2.689-10.579c0.532-1.027,1.209-2.107,2.104-2.864 c-0.831-0.211-1.259,0.083-1.284,0.884c-0.482,1.261-1.273,2.454-2.025,3.553c-2.346,3.434-5.894,6-9.401,8.134 c-2.547,1.549-4.753,2.988-6.33,5.592c-1.961,3.235,1.827,3.995,3.827,2.133c2.767-2.576,4.368-6.852,5.741-10.292 c0.409-1.025-1.292-0.946-1.735-0.408c-4.39,5.331-2.712-7.444,0.802-3.905C138.658,14.099,140.485,13.302,139.8,12.613 L139.8,12.613z"/>
</svg>